<?xml version="1.0" encoding="UTF-8" standalone="no"?>
<svg
   version="1.1"
   x="0px"
   y="0px"
   viewBox="0 0 100 100"
   enable-background="new 0 0 100 100"
   xml:space="preserve"
   id="svg4"
   sodipodi:docname="dark.svg"
   inkscape:version="1.2.1 (9c6d41e410, 2022-07-14)"
   xmlns:inkscape="http://www.inkscape.org/namespaces/inkscape"
   xmlns:sodipodi="http://sodipodi.sourceforge.net/DTD/sodipodi-0.dtd"
   xmlns="http://www.w3.org/2000/svg"
   xmlns:svg="http://www.w3.org/2000/svg"><defs
     id="defs8"><inkscape:path-effect
       effect="bspline"
       id="path-effect1234"
       is_visible="true"
       lpeversion="1"
       weight="33.333333"
       steps="2"
       helper_size="0"
       apply_no_weight="true"
       apply_with_weight="true"
       only_selected="false" /><inkscape:path-effect
       effect="bspline"
       id="path-effect900"
       is_visible="true"
       lpeversion="1"
       weight="33.333333"
       steps="2"
       helper_size="0"
       apply_no_weight="true"
       apply_with_weight="true"
       only_selected="false" /><inkscape:path-effect
       effect="bspline"
       id="path-effect1893"
       is_visible="true"
       lpeversion="1"
       weight="33.333333"
       steps="2"
       helper_size="0"
       apply_no_weight="true"
       apply_with_weight="true"
       only_selected="false" /><inkscape:path-effect
       effect="bspline"
       id="path-effect1782"
       is_visible="true"
       lpeversion="1"
       weight="33.333333"
       steps="2"
       helper_size="0"
       apply_no_weight="true"
       apply_with_weight="true"
       only_selected="false" /></defs><sodipodi:namedview
     id="namedview6"
     pagecolor="#ffffff"
     bordercolor="#000000"
     borderopacity="0.25"
     inkscape:showpageshadow="2"
     inkscape:pageopacity="0.0"
     inkscape:pagecheckerboard="0"
     inkscape:deskcolor="#d1d1d1"
     showgrid="false"
     inkscape:zoom="2.035"
     inkscape:cx="71.498771"
     inkscape:cy="-7.1253071"
     inkscape:window-width="1920"
     inkscape:window-height="1001"
     inkscape:window-x="-9"
     inkscape:window-y="-9"
     inkscape:window-maximized="1"
     inkscape:current-layer="svg4" /><path
     style="fill:#000080;fill-opacity:1;stroke-width:1.13421"
     d="M 4.0385939,11.690408 C 3.8526443,7.3201693 7.565193,4.7170607 14.062701,3.4155855 c 6.497508,-1.3014752 15.778696,-1.3014752 21.718687,0.558573 5.939991,1.8600482 8.538723,5.5786999 13.272283,6.7865425 4.73356,1.207842 11.601638,-0.09369 17.077307,-2.4178898 5.475669,-2.3242035 9.559392,-5.6709916 14.200606,-4.4617026 4.641214,1.2092889 9.838678,6.9732004 11.508654,12.3651244 1.669977,5.391925 -0.186258,10.412106 -0.278772,16.269521 -0.09251,5.857416 1.578099,12.55099 3.434376,20.453371 1.856277,7.90238 3.89814,17.01308 1.206497,23.706068 C 93.510695,83.368181 86.085746,87.644629 76.43323,91.177454 66.780713,94.710279 54.900793,97.49927 48.589219,97.500008 42.277645,97.500747 41.53515,94.711756 35.409735,93.130642 29.28432,91.549528 17.775647,91.177664 12.113417,85.414065 6.4511874,79.650466 6.636811,68.494506 5.4673064,59.447666 4.2978018,50.400827 1.7726696,43.463135 2.7007894,38.627829 3.6289093,33.792524 8.0100564,31.061855 8.1591612,26.62914 8.3082661,22.196424 4.2245436,16.060647 4.0385939,11.690408 Z"
     id="path1891"
     inkscape:path-effect="#path-effect1893"
     inkscape:original-d="M 0.13986797,9.9234375 C 3.8535515,7.3214632 7.5661002,4.7183546 11.277516,2.1141103 c 9.282693,0.00113 18.563881,0.00113 27.844122,0 2.599969,3.7199372 5.198701,7.4385886 7.796353,11.1561817 C 53.787478,11.969847 60.655556,10.668318 67.52264,9.3656277 71.607658,6.0198419 75.691382,2.6730543 79.774053,-0.67493511 84.972859,5.0903425 90.170322,10.854255 95.366757,16.617147 c -1.855175,5.021516 -3.71141,10.041697 -5.568817,15.060845 1.671813,6.694978 3.342423,13.388553 5.011938,20.081127 2.04308,9.112198 4.084941,18.222898 6.125712,27.332645 C 93.511466,83.36952 86.086519,87.645971 78.660289,91.921369 66.781025,94.711606 54.901105,97.500597 43.019813,100.28851 42.278422,97.50054 41.535927,94.711549 40.792284,91.921369 29.284284,91.550631 17.775611,91.178763 6.265575,90.805755 6.4523387,79.650485 6.6379631,68.494525 6.8224568,57.337208 4.2983459,50.400629 1.7732139,43.462937 -0.75308873,36.523723 3.629605,33.79364 8.0107519,31.062971 12.391281,28.331138 8.3085274,22.19625 4.2248061,16.060472 0.13986797,9.9234375 Z"
     sodipodi:nodetypes="cccccccccccccccccc" /><circle
     style="fill:#f6f688;fill-opacity:1;stroke-width:0.773025"
     id="path220"
     cx="50"
     cy="45"
     r="30" /><path
     style="fill:#000080;fill-opacity:1;stroke-width:1.07679"
     d="m 58.466253,18.837084 c -6.552943,4.094758 -17.568565,12.776167 -20.132317,23.669732 -2.563751,10.893565 3.323791,23.997316 7.122636,30.630651 3.798845,6.633335 5.508131,6.797132 11.965444,5.158917 6.457313,-1.638215 17.662636,-5.07795 22.885192,-13.758848 5.222557,-8.680899 4.462875,-22.603634 1.614517,-31.612726 -2.848357,-9.009092 -7.786296,-13.104014 -11.299849,-15.397554 -3.513553,-2.29354 -5.60268,-2.78493 -12.155623,1.309828 z"
     id="path898"
     inkscape:path-effect="#path-effect900"
     inkscape:original-d="M 62.928703,14.250614 C 51.914241,22.933023 40.898619,31.614432 29.881838,40.29484 c 5.888938,13.105275 11.77648,26.209027 17.662981,39.31204 1.710514,0.164803 3.4198,0.3286 5.127961,0.4914 C 63.879709,76.659408 75.085032,73.219673 86.28942,69.77887 85.530866,55.856577 84.771183,41.933842 84.010327,28.009828 79.073348,23.915742 74.135409,19.82082 69.196214,15.724816 67.108161,15.234405 65.019034,14.743015 62.928703,14.250614 Z" /><path
     style="fill:#000080;fill-opacity:1"
     d="m 65.848232,29.156862 c -1.310896,-4.95e-4 -2.621298,1.146106 -2.293172,2.538906 0.328125,1.392799 2.293688,3.030768 3.603452,3.03056 1.309763,-2.09e-4 1.96495,-1.638178 1.637971,-3.030285 -0.326979,-1.392107 -1.637354,-2.538685 -2.948251,-2.539181 z"
     id="path1232"
     inkscape:path-effect="#path-effect1234"
     inkscape:original-d="m 65.847666,28.009828 c -1.309401,1.147601 -2.619803,2.294202 -3.931204,3.439803 1.966641,1.639035 3.932204,3.277004 5.896806,4.914005 0.656214,-1.637034 1.311401,-3.275003 1.965602,-4.914005 -1.309428,-1.145624 -2.619803,-2.292202 -3.931204,-3.439803 z" /><path
     sodipodi:type="star"
     style="fill:#ffff00;fill-opacity:1"
     id="path1358"
     inkscape:flatsided="false"
     sodipodi:sides="5"
     sodipodi:cx="55.528255"
     sodipodi:cy="40.294842"
     sodipodi:r1="8.7491369"
     sodipodi:r2="4.3745685"
     sodipodi:arg1="0.90482709"
     sodipodi:arg2="1.5331456"
     inkscape:rounded="0"
     inkscape:randomized="0"
     d="m 60.933661,47.174449 -5.240739,-2.508139 -5.037199,2.895293 0.765904,-5.759296 -4.310168,-3.895967 5.714094,-1.051302 2.373369,-5.303133 2.7656,5.109556 5.77699,0.61845 -4.004858,4.209181 z"
     inkscape:transform-center-x="0.10176961"
     inkscape:transform-center-y="-0.73808749"
     transform="translate(12.776413,-7.8624079)" /><path
     sodipodi:type="star"
     style="fill:#ffff00;fill-opacity:1"
     id="path1360"
     inkscape:flatsided="false"
     sodipodi:sides="5"
     sodipodi:cx="47.665848"
     sodipodi:cy="48.157249"
     sodipodi:r1="6.5928292"
     sodipodi:r2="3.2964146"
     sodipodi:arg1="0.46364761"
     sodipodi:arg2="1.0919661"
     inkscape:rounded="0"
     inkscape:randomized="0"
     d="m 53.562654,51.105652 -4.378012,-0.02272 -2.500679,3.593621 -1.331271,-4.170758 -4.190488,-1.267797 3.555241,-2.554949 -0.08919,-4.377162 3.528531,2.591712 4.135369,-1.437437 -1.374489,4.156715 z"
     inkscape:transform-center-x="0.30341903"
     inkscape:transform-center-y="0.33396933" /><path
     sodipodi:type="star"
     style="fill:#ffff00;fill-opacity:1"
     id="path1362"
     inkscape:flatsided="false"
     sodipodi:sides="5"
     sodipodi:cx="65.356262"
     sodipodi:cy="59.950859"
     sodipodi:r1="17.642578"
     sodipodi:r2="8.8212891"
     sodipodi:arg1="1.3460852"
     sodipodi:arg2="1.9744037"
     inkscape:rounded="0"
     inkscape:randomized="0"
     d="m 69.287465,77.149877 -7.395662,-9.086517 -11.67797,0.941084 6.356406,-9.841581 -4.503716,-10.815598 11.324137,3.004085 8.894521,-7.625492 0.642296,11.698208 10.000832,6.102785 -10.927177,4.225805 z"
     inkscape:transform-center-x="-0.68563074"
     inkscape:transform-center-y="0.28652817"
     transform="matrix(0.56439423,0,0,0.58834352,33.175646,25.862441)" /></svg>
